<svg width="32" height="32" viewBox="0 0 32 32" fill="none" xmlns="http://www.w3.org/2000/svg">
<path opacity="0.2" d="M16 28C22.6274 28 28 22.6274 28 16C28 9.37258 22.6274 4 16 4C9.37258 4 4 9.37258 4 16C4 22.6274 9.37258 28 16 28Z" fill="currentColor"/>
<path fill-rule="evenodd" clip-rule="evenodd" d="M22.2234 12.3095C22.6047 12.709 22.59 13.342 22.1905 13.7234L14.8571 20.7234C14.4707 21.0922 13.8626 21.0922 13.4761 20.7234L9.80952 17.2234C9.41003 16.842 9.39531 16.209 9.77665 15.8095C10.158 15.41 10.791 15.3953 11.1905 15.7766L14.1666 18.6176L20.8095 12.2766C21.209 11.8953 21.842 11.91 22.2234 12.3095Z" fill="currentColor"/>
<path fill-rule="evenodd" clip-rule="evenodd" d="M16 5C9.92487 5 5 9.92487 5 16C5 22.0751 9.92487 27 16 27C22.0751 27 27 22.0751 27 16C27 9.92487 22.0751 5 16 5ZM3 16C3 8.8203 8.8203 3 16 3C23.1797 3 29 8.8203 29 16C29 23.1797 23.1797 29 16 29C8.8203 29 3 23.1797 3 16Z" fill="currentColor"/>
</svg>
