<svg width="24" height="24" viewBox="0 0 24 24" fill="none" xmlns="http://www.w3.org/2000/svg">
<path opacity="0.2" d="M14.25 3V8.25H19.5007L14.25 3Z" fill="white"/>
<path fill-rule="evenodd" clip-rule="evenodd" d="M4.18836 2.68934C4.46967 2.40804 4.8512 2.25 5.24902 2.25H14.2498C14.4487 2.25 14.6394 2.32902 14.7801 2.46967L20.0301 7.71967C20.1707 7.86032 20.2498 8.05109 20.2498 8.25V20.25C20.2498 20.447 20.211 20.642 20.1356 20.824C20.0602 21.006 19.9497 21.1714 19.8104 21.3107C19.6711 21.45 19.5058 21.5604 19.3238 21.6358C19.1418 21.7112 18.9467 21.75 18.7498 21.75H5.24902C4.8512 21.75 4.46967 21.592 4.18836 21.3107C3.90706 21.0294 3.74902 20.6478 3.74902 20.25V3.75C3.74902 3.35218 3.90706 2.97064 4.18836 2.68934ZM13.9391 3.75L5.24902 3.75L5.24902 20.25L18.7498 20.25V8.56066L13.9391 3.75Z" fill="white"/>
<path fill-rule="evenodd" clip-rule="evenodd" d="M14.25 2.25C14.6642 2.25 15 2.58579 15 3V7.5H19.5007C19.915 7.5 20.2507 7.83579 20.2507 8.25C20.2507 8.66421 19.915 9 19.5007 9H14.25C13.8358 9 13.5 8.66421 13.5 8.25V3C13.5 2.58579 13.8358 2.25 14.25 2.25Z" fill="white"/>
<path fill-rule="evenodd" clip-rule="evenodd" d="M8.25 12.75C8.25 12.3358 8.58579 12 9 12H15C15.4142 12 15.75 12.3358 15.75 12.75C15.75 13.1642 15.4142 13.5 15 13.5H9C8.58579 13.5 8.25 13.1642 8.25 12.75Z" fill="white"/>
<path fill-rule="evenodd" clip-rule="evenodd" d="M8.25 15.75C8.25 15.3358 8.58579 15 9 15H15C15.4142 15 15.75 15.3358 15.75 15.75C15.75 16.1642 15.4142 16.5 15 16.5H9C8.58579 16.5 8.25 16.1642 8.25 15.75Z" fill="white"/>
</svg>
