<svg width="16" height="16" viewBox="0 0 16 16" fill="none" xmlns="http://www.w3.org/2000/svg">
<path opacity="0.2" d="M6.14645 3.14645L8 5H2V3.5C2 3.36739 2.05268 3.24021 2.14645 3.14645C2.24021 3.05268 2.36739 3 2.5 3H5.79289C5.85855 3 5.92357 3.01293 5.98424 3.03806C6.0449 3.06319 6.10002 3.10002 6.14645 3.14645Z" fill="white"/>
<path fill-rule="evenodd" clip-rule="evenodd" d="M1.5 5C1.5 4.72386 1.72386 4.5 2 4.5H13.5C13.7652 4.5 14.0196 4.60536 14.2071 4.79289C14.3946 4.98043 14.5 5.23478 14.5 5.5V12.5556C14.5 12.806 14.4005 13.0463 14.2234 13.2234C14.0463 13.4005 13.806 13.5 13.5556 13.5H2.46154L2.46008 13.5C2.20568 13.4993 1.96191 13.3979 1.78202 13.218C1.60214 13.0381 1.50075 12.7943 1.5 12.5399L1.5 12.5385V5ZM13.5 12.5H2.5V5.5H13.5V12.5Z" fill="white"/>
<path fill-rule="evenodd" clip-rule="evenodd" d="M1.79289 2.79289C1.98043 2.60536 2.23478 2.5 2.5 2.5H5.79289C5.92421 2.5 6.05425 2.52587 6.17558 2.57612C6.2969 2.62638 6.40714 2.70004 6.5 2.79289L8.35355 4.64645C8.54882 4.84171 8.54882 5.15829 8.35355 5.35355C8.15829 5.54882 7.84171 5.54882 7.64645 5.35355L5.79289 3.5L2.5 3.5L2.5 5C2.5 5.27614 2.27614 5.5 2 5.5C1.72386 5.5 1.5 5.27614 1.5 5V3.5C1.5 3.23478 1.60536 2.98043 1.79289 2.79289Z" fill="white"/>
</svg>
