<svg width="24" height="24" viewBox="0 0 24 24" fill="none" xmlns="http://www.w3.org/2000/svg">
<path opacity="0.2" d="M21.4905 9.80076C21.4639 9.69216 21.4136 9.59078 21.3433 9.50382C21.2729 9.41687 21.1843 9.34648 21.0837 9.29768L19.5204 8.52465L18.7704 7.22561L18.8826 5.48514C18.8906 5.37361 18.874 5.26167 18.8339 5.1573C18.7937 5.05293 18.7311 4.9587 18.6503 4.88131C17.5716 3.8581 16.2663 3.10446 14.8408 2.6819C14.7334 2.65069 14.6205 2.64353 14.51 2.66095C14.3996 2.67837 14.2943 2.71994 14.2017 2.78268L12.7506 3.75005L11.2506 3.75005L9.79942 2.78264C9.70686 2.71989 9.6016 2.67832 9.49113 2.6609C9.38067 2.64348 9.26772 2.65063 9.16034 2.68184C7.73488 3.10443 6.42954 3.85808 5.35083 4.88127C5.27011 4.95866 5.20745 5.05289 5.1673 5.15726C5.12716 5.26163 5.11052 5.37357 5.11856 5.4851L5.23076 7.22552L4.48076 8.52456L2.91736 9.29761C2.81675 9.34641 2.72813 9.41678 2.65781 9.50373C2.5875 9.59067 2.53721 9.69205 2.51054 9.80065C2.16379 11.2464 2.1638 12.7537 2.51059 14.1995C2.53724 14.3081 2.58751 14.4095 2.65782 14.4964C2.72813 14.5834 2.81674 14.6538 2.91736 14.7026L4.48072 15.4756L5.23072 16.7747L5.11852 18.5151C5.11047 18.6266 5.1271 18.7386 5.16724 18.843C5.20737 18.9473 5.27003 19.0416 5.35074 19.119C6.42944 20.1422 7.7348 20.8958 9.16029 21.3184C9.26767 21.3496 9.38061 21.3567 9.49106 21.3393C9.60152 21.3219 9.70677 21.2803 9.79933 21.2176L11.2505 20.2502H12.7505L14.2016 21.2176C14.2942 21.2804 14.3995 21.3219 14.5099 21.3394C14.6204 21.3568 14.7333 21.3496 14.8407 21.3184C16.2662 20.8958 17.5715 20.1422 18.6502 19.119C18.731 19.0416 18.7936 18.9474 18.8338 18.843C18.8739 18.7386 18.8906 18.6267 18.8825 18.5152L18.7703 16.7747L19.5203 15.4757L21.0837 14.7026C21.1843 14.6539 21.2729 14.5835 21.3433 14.4965C21.4136 14.4096 21.4639 14.3082 21.4905 14.1996C21.8373 12.7538 21.8373 11.2465 21.4905 9.80075L21.4905 9.80076ZM12.0006 17.2501C10.9622 17.2501 9.94719 16.9422 9.08384 16.3654C8.22048 15.7885 7.54757 14.9685 7.15021 14.0092C6.75285 13.0499 6.64889 11.9943 6.85146 10.9759C7.05403 9.95751 7.55404 9.02205 8.28827 8.28783C9.0225 7.5536 9.95796 7.05359 10.9764 6.85101C11.9948 6.64844 13.0504 6.75241 14.0097 7.14977C14.969 7.54713 15.7889 8.22003 16.3658 9.08339C16.9427 9.94675 17.2506 10.9618 17.2506 12.0001C17.2506 13.3925 16.6975 14.7279 15.7129 15.7124C14.7283 16.697 13.393 17.2501 12.0006 17.2501V17.2501Z" fill="white"/>
<path fill-rule="evenodd" clip-rule="evenodd" d="M12 9C10.3431 9 9 10.3431 9 12C9 13.6569 10.3431 15 12 15C13.6569 15 15 13.6569 15 12C15 10.3431 13.6569 9 12 9ZM7.5 12C7.5 9.51472 9.51472 7.5 12 7.5C14.4853 7.5 16.5 9.51472 16.5 12C16.5 14.4853 14.4853 16.5 12 16.5C9.51472 16.5 7.5 14.4853 7.5 12Z" fill="white"/>
<path fill-rule="evenodd" clip-rule="evenodd" d="M8.95107 1.96162C9.16433 1.89965 9.38863 1.88546 9.608 1.92006C9.82623 1.95449 10.0342 2.03636 10.2174 2.15989L11.4777 3.00004L12.5235 3.00004L13.7837 2.15995C13.9669 2.03641 14.1749 1.95453 14.3932 1.92011C14.6126 1.88551 14.8369 1.89971 15.0501 1.96169L15.054 1.96281C16.5928 2.41902 18.002 3.23259 19.1665 4.33715L19.1694 4.33995C19.3297 4.49366 19.4542 4.68082 19.5339 4.8881C19.6132 5.09431 19.6463 5.31539 19.6309 5.53575L19.5334 7.04727L20.0563 7.95301L21.4109 8.62285C21.4119 8.62334 21.4129 8.62383 21.4139 8.62432C21.6125 8.72116 21.7875 8.86039 21.9264 9.03221C22.0661 9.20489 22.1659 9.40624 22.2189 9.62192L22.2198 9.62582C22.5942 11.1866 22.5942 12.8138 22.2198 14.3745L22.2189 14.3785C22.1659 14.5941 22.0661 14.7955 21.9264 14.9682C21.7875 15.1399 21.6126 15.2791 21.4141 15.376L20.0563 16.0474L19.5334 16.9531L19.6308 18.4646C19.6462 18.685 19.6131 18.906 19.5338 19.1122C19.454 19.3195 19.3296 19.5067 19.1693 19.6604L19.1664 19.6632C18.0019 20.7677 16.5927 21.5813 15.0539 22.0375L15.05 22.0387C14.8367 22.1006 14.6124 22.1148 14.3931 22.0802C14.1748 22.0458 13.9668 21.9639 13.7836 21.8403C13.7827 21.8397 13.7818 21.8391 13.7808 21.8385L12.5234 21.0002H11.4775L10.2173 21.8403C10.0342 21.9639 9.82615 22.0457 9.6079 22.0802C9.38853 22.1148 9.16423 22.1006 8.95096 22.0386L8.94711 22.0375C7.40827 21.5813 5.9991 20.7677 4.8346 19.6631L4.83166 19.6603C4.67136 19.5066 4.54693 19.3195 4.46721 19.1122C4.3879 18.906 4.3548 18.6849 4.37021 18.4645L4.46767 16.953L3.94474 16.0473L2.58695 15.3759C2.38844 15.279 2.21356 15.1398 2.07466 14.9681C1.93501 14.7954 1.83515 14.594 1.7822 14.3784L1.78124 14.3744C1.4069 12.8137 1.40691 11.1865 1.78123 9.62574L1.78218 9.62179C1.83515 9.40612 1.93502 9.20478 2.07467 9.0321C2.21361 8.8603 2.38855 8.72108 2.58712 8.62424L3.9448 7.95292L4.46772 7.04718L4.37029 5.53576C4.35487 5.31537 4.38798 5.09427 4.4673 4.88804C4.54703 4.68076 4.67147 4.49361 4.83178 4.33991L4.83468 4.33713C5.99917 3.23255 7.40834 2.41897 8.94717 1.96276L8.95107 1.96162ZM9.37006 3.40192C8.06045 3.79077 6.86111 4.48322 5.86957 5.42297C5.86859 5.42399 5.86783 5.42519 5.86732 5.42651C5.86676 5.42798 5.86652 5.42954 5.86664 5.4311L5.86705 5.43687L5.99383 7.40388L5.01676 9.09622L3.24464 9.97248C3.24322 9.97316 3.24197 9.97413 3.24098 9.97535C3.24009 9.97646 3.23942 9.97773 3.23903 9.97909C2.92097 11.3077 2.92098 12.6926 3.23905 14.0211C3.23945 14.0225 3.24011 14.0237 3.241 14.0249C3.24198 14.0261 3.24322 14.0271 3.24463 14.0277L3.24983 14.0303L5.01671 14.904L5.99378 16.5963L5.86658 18.5691C5.86647 18.5707 5.86668 18.5723 5.86724 18.5737C5.86775 18.5751 5.86852 18.5763 5.8695 18.5773C6.86109 19.5171 8.06049 20.2095 9.37016 20.5983C9.37149 20.5986 9.37287 20.5987 9.37422 20.5985C9.37493 20.5984 9.37562 20.5982 9.37629 20.5979C9.37708 20.5976 9.37784 20.5972 9.37854 20.5968L9.38332 20.5935L11.0234 19.5002H12.9776L14.6225 20.5968C14.6234 20.5974 14.6243 20.5979 14.6254 20.5982C14.6258 20.5983 14.6263 20.5985 14.6268 20.5985C14.6282 20.5988 14.6296 20.5987 14.631 20.5983C15.9418 20.2092 17.1421 19.5158 18.1341 18.5749L18.6502 19.119L18.1312 18.5776C18.1323 18.5765 18.1332 18.5752 18.1338 18.5738C18.1343 18.5723 18.1346 18.5707 18.1344 18.5692L18.134 18.5634L18.0072 16.5964L18.9843 14.9041L20.7564 14.0278C20.7578 14.0271 20.7591 14.0261 20.7601 14.0249C20.761 14.0238 20.7617 14.0225 20.762 14.0212C21.0801 12.6925 21.0801 11.3076 20.762 9.97901C20.7616 9.9777 20.7609 9.97648 20.7601 9.97542C20.7591 9.9742 20.7578 9.97322 20.7564 9.97253L20.7512 9.97001L18.9844 9.09631L18.0073 7.40397L18.1345 5.43113C18.1346 5.42956 18.1344 5.42799 18.1338 5.42653C18.1335 5.42561 18.133 5.42475 18.1324 5.42397C18.1322 5.42362 18.1319 5.42328 18.1316 5.42297C17.14 4.48321 15.9406 3.79076 14.6309 3.40194C14.6296 3.40163 14.6282 3.40158 14.6269 3.4018C14.6253 3.40204 14.6238 3.40262 14.6225 3.4035L14.6178 3.40674L12.9777 4.50004H11.0235L9.37859 3.40347C9.37729 3.40259 9.37583 3.40199 9.37428 3.40174C9.37287 3.40152 9.37144 3.40158 9.37006 3.40192Z" fill="white"/>
</svg>
