<svg width="20" height="20" viewBox="0 0 20 20" fill="none" xmlns="http://www.w3.org/2000/svg">
<path fill-rule="evenodd" clip-rule="evenodd" d="M1.875 6.875C1.875 6.18464 2.43464 5.625 3.125 5.625H16.875C17.5654 5.625 18.125 6.18464 18.125 6.875V9.375C18.125 10.0654 17.5654 10.625 16.875 10.625H3.125C2.43464 10.625 1.875 10.0654 1.875 9.375V6.875ZM16.875 6.875H3.125V9.375H16.875L16.875 6.875Z" fill="white"/>
<path fill-rule="evenodd" clip-rule="evenodd" d="M3.75 9.375C4.09518 9.375 4.375 9.65482 4.375 10V15.625H15.625V10C15.625 9.65482 15.9048 9.375 16.25 9.375C16.5952 9.375 16.875 9.65482 16.875 10V15.625C16.875 15.9565 16.7433 16.2745 16.5089 16.5089C16.2745 16.7433 15.9565 16.875 15.625 16.875H4.375C4.04348 16.875 3.72554 16.7433 3.49112 16.5089C3.2567 16.2745 3.125 15.9565 3.125 15.625V10C3.125 9.65482 3.40482 9.375 3.75 9.375Z" fill="white"/>
<path fill-rule="evenodd" clip-rule="evenodd" d="M10 5.625C10.3452 5.625 10.625 5.90482 10.625 6.25V16.25C10.625 16.5952 10.3452 16.875 10 16.875C9.65482 16.875 9.375 16.5952 9.375 16.25V6.25C9.375 5.90482 9.65482 5.625 10 5.625Z" fill="white"/>
<path fill-rule="evenodd" clip-rule="evenodd" d="M7.7903 1.54102C8.4531 1.54083 9.08884 1.80384 9.55778 2.27224C9.87888 2.59335 10.0832 3.0317 10.22 3.44211C10.3604 3.86328 10.45 4.31762 10.5082 4.72527C10.5668 5.13543 10.5958 5.51389 10.6103 5.78899C10.6176 5.92702 10.6212 6.0402 10.6231 6.11977C10.624 6.15959 10.6245 6.19106 10.6247 6.21311L10.6249 6.23899L10.625 6.2464L10.625 6.24867L10.625 6.24944C10.625 6.24956 10.625 6.24997 9.99997 6.24997C9.99997 6.87497 9.99986 6.87497 9.99974 6.87497L9.99867 6.87497L9.9964 6.87496L9.98899 6.87493L9.96311 6.87472C9.94106 6.87447 9.90959 6.874 9.86977 6.87307C9.7902 6.87122 9.67702 6.86756 9.53899 6.8603C9.26389 6.84582 8.88543 6.8168 8.47527 6.7582C8.06762 6.69997 7.61328 6.6104 7.19211 6.47001C6.7817 6.3332 6.3436 6.12913 6.02249 5.80803C5.55409 5.33909 5.29083 4.7031 5.29102 4.0403C5.2912 3.37751 5.55458 2.74192 6.02325 2.27325C6.49192 1.80458 7.12751 1.5412 7.7903 1.54102ZM6.90638 4.92414C7.02721 5.04498 7.25203 5.17237 7.58739 5.28415C7.912 5.39236 8.2863 5.46852 8.65205 5.52077C8.90144 5.55639 9.13973 5.57992 9.34542 5.59542C9.32992 5.38973 9.30639 5.15144 9.27077 4.90205C9.21852 4.5363 9.14236 4.162 9.03415 3.83739C8.92238 3.50206 8.79501 3.27726 8.67418 3.15641C8.67417 3.1564 8.67419 3.15642 8.67418 3.15641M8.67418 3.15641C8.43974 2.92237 8.12194 2.79092 7.79066 2.79102C7.45926 2.79111 7.14147 2.9228 6.90713 3.15713C6.6728 3.39147 6.54111 3.70926 6.54102 4.04066C6.54092 4.37194 6.67234 4.6897 6.90638 4.92414M9.99997 6.24997L9.99974 6.87497C10.1655 6.87497 10.3247 6.80912 10.4419 6.69191C10.5591 6.5747 10.625 6.4152 10.625 6.24944L9.99997 6.24997Z" fill="white"/>
<path fill-rule="evenodd" clip-rule="evenodd" d="M12.2097 1.54102C11.5469 1.54083 10.9112 1.80384 10.4422 2.27224C10.1211 2.59335 9.9168 3.0317 9.77999 3.44211C9.6396 3.86328 9.55003 4.31762 9.4918 4.72527C9.4332 5.13543 9.40418 5.51389 9.3897 5.78899C9.38244 5.92702 9.37878 6.0402 9.37693 6.11977C9.376 6.15959 9.37553 6.19106 9.37528 6.21311L9.37507 6.23899L9.37504 6.2464L9.37503 6.24867L9.37503 6.24944C9.37503 6.24956 9.37503 6.24997 10 6.24997C10 6.87497 10.0001 6.87497 10.0003 6.87497L10.0013 6.87497L10.0036 6.87496L10.011 6.87493L10.0369 6.87472C10.0589 6.87447 10.0904 6.874 10.1302 6.87307C10.2098 6.87122 10.323 6.86756 10.461 6.8603C10.7361 6.84582 11.1146 6.8168 11.5247 6.7582C11.9324 6.69997 12.3867 6.6104 12.8079 6.47001C13.2183 6.3332 13.6564 6.12913 13.9775 5.80803C14.4459 5.33909 14.7092 4.7031 14.709 4.0403C14.7088 3.37751 14.4454 2.74192 13.9768 2.27325C13.5081 1.80458 12.8725 1.5412 12.2097 1.54102ZM13.0936 4.92414C12.9728 5.04498 12.748 5.17237 12.4126 5.28415C12.088 5.39236 11.7137 5.46852 11.348 5.52077C11.0986 5.55639 10.8603 5.57992 10.6546 5.59542C10.6701 5.38973 10.6936 5.15144 10.7292 4.90205C10.7815 4.5363 10.8576 4.162 10.9658 3.83739C11.0776 3.50206 11.205 3.27726 11.3258 3.15641C11.3258 3.1564 11.3258 3.15642 11.3258 3.15641M11.3258 3.15641C11.5603 2.92237 11.8781 2.79092 12.2093 2.79102C12.5407 2.79111 12.8585 2.9228 13.0929 3.15713C13.3272 3.39147 13.4589 3.70926 13.459 4.04066C13.4591 4.37194 13.3277 4.6897 13.0936 4.92414M10 6.24997L10.0003 6.87497C9.8345 6.87497 9.6753 6.80912 9.55809 6.69191C9.44088 6.5747 9.37503 6.4152 9.37503 6.24944L10 6.24997Z" fill="white"/>
<path opacity="0.2" d="M16.25 10V15.625C16.25 15.7908 16.1842 15.9497 16.0669 16.0669C15.9497 16.1842 15.7908 16.25 15.625 16.25H4.375C4.20924 16.25 4.05027 16.1842 3.93306 16.0669C3.81585 15.9497 3.75 15.7908 3.75 15.625V10H16.25Z" fill="white"/>
</svg>
