<svg width="24" height="24" viewBox="0 0 24 24" fill="none" xmlns="http://www.w3.org/2000/svg">
<path opacity="0.2" d="M19.5 8.25H4.5C4.08579 8.25 3.75 8.58579 3.75 9V19.5C3.75 19.9142 4.08579 20.25 4.5 20.25H19.5C19.9142 20.25 20.25 19.9142 20.25 19.5V9C20.25 8.58579 19.9142 8.25 19.5 8.25Z" fill="white"/>
<path d="M11.9995 15.375C12.6208 15.375 13.1245 14.8713 13.1245 14.25C13.1245 13.6287 12.6208 13.125 11.9995 13.125C11.3782 13.125 10.8745 13.6287 10.8745 14.25C10.8745 14.8713 11.3782 15.375 11.9995 15.375Z" fill="white"/>
<path fill-rule="evenodd" clip-rule="evenodd" d="M3 9C3 8.17157 3.67157 7.5 4.5 7.5H19.5C20.3284 7.5 21 8.17157 21 9V19.5C21 20.3284 20.3284 21 19.5 21H4.5C3.67157 21 3 20.3284 3 19.5V9ZM19.5 9H4.5V19.5H19.5V9Z" fill="white"/>
<path fill-rule="evenodd" clip-rule="evenodd" d="M12 2.25C11.3038 2.25 10.6361 2.52656 10.1438 3.01884C9.65156 3.51113 9.375 4.17881 9.375 4.875V8.25C9.375 8.66421 9.03921 9 8.625 9C8.21079 9 7.875 8.66421 7.875 8.25V4.875C7.875 3.78098 8.3096 2.73177 9.08318 1.95818C9.85677 1.1846 10.906 0.75 12 0.75C13.094 0.75 14.1432 1.1846 14.9168 1.95818C15.6904 2.73177 16.125 3.78098 16.125 4.875V8.25C16.125 8.66421 15.7892 9 15.375 9C14.9608 9 14.625 8.66421 14.625 8.25V4.875C14.625 4.17881 14.3484 3.51113 13.8562 3.01884C13.3639 2.52656 12.6962 2.25 12 2.25Z" fill="white"/>
</svg>
