<svg width="24" height="24" viewBox="0 0 24 24" fill="none" xmlns="http://www.w3.org/2000/svg">
<path opacity="0.2" d="M4.5 18L19.5 18C20.3284 18 21 17.3284 21 16.5V6C21 5.17157 20.3284 4.5 19.5 4.5L4.5 4.5C3.67157 4.5 3 5.17157 3 6V16.5C3 17.3284 3.67157 18 4.5 18Z" fill="white"/>
<path fill-rule="evenodd" clip-rule="evenodd" d="M19.5 17.25C19.9142 17.25 20.25 16.9142 20.25 16.5V6C20.25 5.58579 19.9142 5.25 19.5 5.25L4.5 5.25C4.08579 5.25 3.75 5.58579 3.75 6V16.5C3.75 16.9142 4.08579 17.25 4.5 17.25L19.5 17.25ZM21.75 16.5C21.75 17.7426 20.7426 18.75 19.5 18.75L4.5 18.75C3.25736 18.75 2.25 17.7426 2.25 16.5V6C2.25 4.75736 3.25736 3.75 4.5 3.75L19.5 3.75C20.7426 3.75 21.75 4.75736 21.75 6V16.5Z" fill="white"/>
<path fill-rule="evenodd" clip-rule="evenodd" d="M8.25 21C8.25 20.5858 8.58579 20.25 9 20.25H15C15.4142 20.25 15.75 20.5858 15.75 21C15.75 21.4142 15.4142 21.75 15 21.75H9C8.58579 21.75 8.25 21.4142 8.25 21Z" fill="white"/>
</svg>
