<svg width="24" height="24" viewBox="0 0 24 24" fill="none" xmlns="http://www.w3.org/2000/svg">
<path opacity="0.2" d="M12.75 6.00001L18 11.25L20.4697 8.78034C20.6103 8.63969 20.6893 8.44892 20.6893 8.25001C20.6893 8.0511 20.6103 7.86033 20.4697 7.71968L16.2803 3.53034C16.1397 3.38969 15.9489 3.31067 15.75 3.31067C15.5511 3.31067 15.3603 3.38969 15.2197 3.53034L12.75 6.00001Z" fill="white"/>
<path fill-rule="evenodd" clip-rule="evenodd" d="M3.26728 14.5174C3.56017 14.2245 4.03504 14.2245 4.32794 14.5174L9.48232 19.6718C9.77521 19.9647 9.77521 20.4395 9.48232 20.7324C9.18942 21.0253 8.71455 21.0253 8.42165 20.7324L3.26728 15.5781C2.97438 15.2852 2.97438 14.8103 3.26728 14.5174Z" fill="white"/>
<path fill-rule="evenodd" clip-rule="evenodd" d="M14.6893 3.00001C14.9706 2.7187 15.3522 2.56067 15.75 2.56067C16.1478 2.56067 16.5294 2.7187 16.8107 3.00001L16.3093 3.50141L16.8107 3.00001L21 7.18935C21.2813 7.47065 21.4393 7.85218 21.4393 8.25001C21.4393 8.64783 21.2813 9.02936 21 9.31067L9.75 20.5607C9.61072 20.7 9.44536 20.8104 9.26337 20.8858C9.08138 20.9612 8.88632 21 8.68934 21H4.5C4.10218 21 3.72065 20.842 3.43934 20.5607C3.15804 20.2794 3 19.8978 3 19.5V15.3107C3 15.1137 3.0388 14.9186 3.11418 14.7366C3.18956 14.5547 3.30005 14.3893 3.43934 14.25L14.6893 3.00001ZM19.9393 8.25001L15.75 4.06067L4.5 15.3107L3.96967 14.7803L4.5 15.3107L4.5 19.5L8.68934 19.5L19.9393 8.25001Z" fill="white"/>
<path fill-rule="evenodd" clip-rule="evenodd" d="M12.2197 5.46967C12.5126 5.17678 12.9874 5.17678 13.2803 5.46967L18.5303 10.7197C18.8232 11.0126 18.8232 11.4874 18.5303 11.7803C18.2374 12.0732 17.7626 12.0732 17.4697 11.7803L12.2197 6.53033C11.9268 6.23744 11.9268 5.76256 12.2197 5.46967Z" fill="white"/>
</svg>
