<svg width="24" height="24" viewBox="0 0 24 24" fill="none" xmlns="http://www.w3.org/2000/svg">
<path opacity="0.2" d="M18 5.25H6V18.75H18V5.25Z" fill="white"/>
<path fill-rule="evenodd" clip-rule="evenodd" d="M7.5 3C7.08579 3 6.75 3.33579 6.75 3.75V20.25C6.75 20.6642 7.08579 21 7.5 21H16.5C16.9142 21 17.25 20.6642 17.25 20.25V3.75C17.25 3.33579 16.9142 3 16.5 3H7.5ZM5.25 3.75C5.25 2.50736 6.25736 1.5 7.5 1.5H16.5C17.7426 1.5 18.75 2.50736 18.75 3.75V20.25C18.75 21.4926 17.7426 22.5 16.5 22.5H7.5C6.25736 22.5 5.25 21.4926 5.25 20.25V3.75Z" fill="white"/>
<path fill-rule="evenodd" clip-rule="evenodd" d="M5.25 5.25C5.25 4.83579 5.58579 4.5 6 4.5H18C18.4142 4.5 18.75 4.83579 18.75 5.25C18.75 5.66421 18.4142 6 18 6H6C5.58579 6 5.25 5.66421 5.25 5.25Z" fill="white"/>
<path fill-rule="evenodd" clip-rule="evenodd" d="M5.25 18.75C5.25 18.3358 5.58579 18 6 18H18C18.4142 18 18.75 18.3358 18.75 18.75C18.75 19.1642 18.4142 19.5 18 19.5H6C5.58579 19.5 5.25 19.1642 5.25 18.75Z" fill="white"/>
</svg>
