<svg width="24" height="24" viewBox="0 0 24 24" fill="none" xmlns="http://www.w3.org/2000/svg">
<path opacity="0.2" d="M9.75049 4.5H5.25049C4.83627 4.5 4.50049 4.83579 4.50049 5.25V9.75C4.50049 10.1642 4.83627 10.5 5.25049 10.5H9.75049C10.1647 10.5 10.5005 10.1642 10.5005 9.75V5.25C10.5005 4.83579 10.1647 4.5 9.75049 4.5Z" fill="white"/>
<path opacity="0.2" d="M9.75049 13.5H5.25049C4.83627 13.5 4.50049 13.8358 4.50049 14.25V18.75C4.50049 19.1642 4.83627 19.5 5.25049 19.5H9.75049C10.1647 19.5 10.5005 19.1642 10.5005 18.75V14.25C10.5005 13.8358 10.1647 13.5 9.75049 13.5Z" fill="white"/>
<path opacity="0.2" d="M18.7505 4.5H14.2505C13.8363 4.5 13.5005 4.83579 13.5005 5.25V9.75C13.5005 10.1642 13.8363 10.5 14.2505 10.5H18.7505C19.1647 10.5 19.5005 10.1642 19.5005 9.75V5.25C19.5005 4.83579 19.1647 4.5 18.7505 4.5Z" fill="white"/>
<path fill-rule="evenodd" clip-rule="evenodd" d="M3.75049 5.25C3.75049 4.42157 4.42206 3.75 5.25049 3.75H9.75049C10.5789 3.75 11.2505 4.42157 11.2505 5.25V9.75C11.2505 10.5784 10.5789 11.25 9.75049 11.25H5.25049C4.42206 11.25 3.75049 10.5784 3.75049 9.75V5.25ZM9.75049 5.25H5.25049V9.75H9.75049V5.25Z" fill="white"/>
<path fill-rule="evenodd" clip-rule="evenodd" d="M3.75049 14.25C3.75049 13.4216 4.42206 12.75 5.25049 12.75H9.75049C10.5789 12.75 11.2505 13.4216 11.2505 14.25V18.75C11.2505 19.5784 10.5789 20.25 9.75049 20.25H5.25049C4.42206 20.25 3.75049 19.5784 3.75049 18.75V14.25ZM9.75049 14.25H5.25049V18.75H9.75049V14.25Z" fill="white"/>
<path fill-rule="evenodd" clip-rule="evenodd" d="M12.7505 5.25C12.7505 4.42157 13.4221 3.75 14.2505 3.75H18.7505C19.5789 3.75 20.2505 4.42157 20.2505 5.25V9.75C20.2505 10.5784 19.5789 11.25 18.7505 11.25H14.2505C13.4221 11.25 12.7505 10.5784 12.7505 9.75V5.25ZM18.7505 5.25H14.2505V9.75H18.7505V5.25Z" fill="white"/>
<path fill-rule="evenodd" clip-rule="evenodd" d="M13.5005 12.75C13.9147 12.75 14.2505 13.0858 14.2505 13.5V16.5C14.2505 16.9142 13.9147 17.25 13.5005 17.25C13.0863 17.25 12.7505 16.9142 12.7505 16.5V13.5C12.7505 13.0858 13.0863 12.75 13.5005 12.75Z" fill="white"/>
<path fill-rule="evenodd" clip-rule="evenodd" d="M16.5005 12.75C16.9147 12.75 17.2505 13.0858 17.2505 13.5V19.5C17.2505 19.9142 16.9147 20.25 16.5005 20.25H13.5005C13.0863 20.25 12.7505 19.9142 12.7505 19.5C12.7505 19.0858 13.0863 18.75 13.5005 18.75H15.7505V13.5C15.7505 13.0858 16.0863 12.75 16.5005 12.75Z" fill="white"/>
<path fill-rule="evenodd" clip-rule="evenodd" d="M15.7505 15C15.7505 14.5858 16.0863 14.25 16.5005 14.25H19.5005C19.9147 14.25 20.2505 14.5858 20.2505 15C20.2505 15.4142 19.9147 15.75 19.5005 15.75H16.5005C16.0863 15.75 15.7505 15.4142 15.7505 15Z" fill="white"/>
<path fill-rule="evenodd" clip-rule="evenodd" d="M19.5005 17.25C19.9147 17.25 20.2505 17.5858 20.2505 18V19.5C20.2505 19.9142 19.9147 20.25 19.5005 20.25C19.0863 20.25 18.7505 19.9142 18.7505 19.5V18C18.7505 17.5858 19.0863 17.25 19.5005 17.25Z" fill="white"/>
</svg>
