<svg width="24" height="24" viewBox="0 0 24 24" fill="none" xmlns="http://www.w3.org/2000/svg">
<path fill-rule="evenodd" clip-rule="evenodd" d="M15 4.5C15 4.08579 15.3358 3.75 15.75 3.75H19.5C19.9142 3.75 20.25 4.08579 20.25 4.5V8.25C20.25 8.66421 19.9142 9 19.5 9C19.0858 9 18.75 8.66421 18.75 8.25V5.25H15.75C15.3358 5.25 15 4.91421 15 4.5Z" fill="white"/>
<path fill-rule="evenodd" clip-rule="evenodd" d="M4.5 15C4.91421 15 5.25 15.3358 5.25 15.75V18.75H8.25C8.66421 18.75 9 19.0858 9 19.5C9 19.9142 8.66421 20.25 8.25 20.25H4.5C4.08579 20.25 3.75 19.9142 3.75 19.5V15.75C3.75 15.3358 4.08579 15 4.5 15Z" fill="white"/>
<path fill-rule="evenodd" clip-rule="evenodd" d="M19.5 15C19.9142 15 20.25 15.3358 20.25 15.75V19.5C20.25 19.9142 19.9142 20.25 19.5 20.25H15.75C15.3358 20.25 15 19.9142 15 19.5C15 19.0858 15.3358 18.75 15.75 18.75H18.75V15.75C18.75 15.3358 19.0858 15 19.5 15Z" fill="white"/>
<path fill-rule="evenodd" clip-rule="evenodd" d="M3.75 4.5C3.75 4.08579 4.08579 3.75 4.5 3.75H8.25C8.66421 3.75 9 4.08579 9 4.5C9 4.91421 8.66421 5.25 8.25 5.25H5.25V8.25C5.25 8.66421 4.91421 9 4.5 9C4.08579 9 3.75 8.66421 3.75 8.25V4.5Z" fill="white"/>
</svg>
