<svg width="24" height="24" viewBox="0 0 24 24" fill="none" xmlns="http://www.w3.org/2000/svg">
<path fill-rule="evenodd" clip-rule="evenodd" d="M15.9697 4.71967C16.2626 4.42678 16.7374 4.42678 17.0303 4.71967L21.5303 9.21967C21.8232 9.51256 21.8232 9.98744 21.5303 10.2803L17.0303 14.7803C16.7374 15.0732 16.2626 15.0732 15.9697 14.7803C15.6768 14.4874 15.6768 14.0126 15.9697 13.7197L19.9393 9.75L15.9697 5.78033C15.6768 5.48744 15.6768 5.01256 15.9697 4.71967Z" fill="white"/>
<path fill-rule="evenodd" clip-rule="evenodd" d="M3 7.5C3.41421 7.5 3.75 7.83579 3.75 8.25V19.5H18C18.4142 19.5 18.75 19.8358 18.75 20.25C18.75 20.6642 18.4142 21 18 21H3.75C3.35218 21 2.97065 20.842 2.68934 20.5607C2.40804 20.2794 2.25 19.8978 2.25 19.5V8.25C2.25 7.83579 2.58579 7.5 3 7.5Z" fill="white"/>
<path fill-rule="evenodd" clip-rule="evenodd" d="M15.7501 10.5C13.9208 10.5002 12.1435 11.108 10.6972 12.228C9.25091 13.348 8.21765 14.9167 7.75975 16.6877C7.65607 17.0887 7.24692 17.3298 6.84589 17.2261C6.44486 17.1224 6.20382 16.7133 6.30751 16.3122C6.84862 14.2194 8.06965 12.3655 9.77879 11.042C11.4879 9.71844 13.5883 9.00016 15.75 9H21.0001C21.4143 9 21.7501 9.33579 21.7501 9.75C21.7501 10.1642 21.4143 10.5 21.0001 10.5H15.7501C15.7501 10.5 15.7501 10.5 15.7501 10.5Z" fill="white"/>
</svg>
