<svg width="24" height="24" viewBox="0 0 24 24" fill="none" xmlns="http://www.w3.org/2000/svg">
<path opacity="0.2" d="M3.75 10V4.5C3.75 4.30109 3.82902 4.11032 3.96967 3.96967C4.11032 3.82902 4.30109 3.75 4.5 3.75H19.5C19.6989 3.75 19.8897 3.82902 20.0303 3.96967C20.171 4.11032 20.25 4.30109 20.25 4.5V10C20.25 17.8764 13.5651 20.486 12.2303 20.9285C12.0811 20.9798 11.9189 20.9798 11.7697 20.9285C10.4349 20.486 3.75 17.8764 3.75 10Z" fill="white"/>
<path fill-rule="evenodd" clip-rule="evenodd" d="M3.43934 3.43934C3.72064 3.15804 4.10217 3 4.5 3H19.5C19.8978 3 20.2794 3.15804 20.5607 3.43934C20.842 3.72065 21 4.10218 21 4.5V10C21 18.4049 13.8529 21.18 12.4697 21.6392C12.1652 21.7429 11.8348 21.7429 11.5303 21.6392C10.1471 21.18 3 18.4049 3 10V4.5C3 4.10217 3.15804 3.72064 3.43934 3.43934ZM19.5 4.5L4.5 4.5L4.5 10C4.5 17.3302 10.6926 19.7801 12 20.2147C13.3074 19.7801 19.5 17.3302 19.5 10V4.5Z" fill="white"/>
</svg>
