<svg width="24" height="6" viewBox="0 0 24 6" fill="none" xmlns="http://www.w3.org/2000/svg">
<path fill-rule="evenodd" clip-rule="evenodd" d="M18.75 4.5C18.75 4.08579 18.4142 3.75 18 3.75L6 3.75C5.58579 3.75 5.25 4.08579 5.25 4.5L5.25 19.5C5.25 19.9142 5.58579 20.25 6 20.25H18C18.4142 20.25 18.75 19.9142 18.75 19.5V4.5ZM18 2.25C19.2426 2.25 20.25 3.25736 20.25 4.5V19.5C20.25 20.7426 19.2426 21.75 18 21.75H6C4.75736 21.75 3.75 20.7426 3.75 19.5V4.5C3.75 3.25736 4.75736 2.25 6 2.25L18 2.25Z" fill="white"/>
<path fill-rule="evenodd" clip-rule="evenodd" d="M3.75 6C3.75 5.58579 4.08579 5.25 4.5 5.25H19.5C19.9142 5.25 20.25 5.58579 20.25 6C20.25 6.41421 19.9142 6.75 19.5 6.75H4.5C4.08579 6.75 3.75 6.41421 3.75 6Z" fill="white"/>
</svg>
