<svg width="24" height="24" viewBox="0 0 24 24" fill="none" xmlns="http://www.w3.org/2000/svg">
<path opacity="0.2" d="M18.7495 5.25V19.5C18.7495 19.6989 18.6705 19.8897 18.5298 20.0303C18.3892 20.171 18.1984 20.25 17.9995 20.25H5.99951C5.8006 20.25 5.60983 20.171 5.46918 20.0303C5.32853 19.8897 5.24951 19.6989 5.24951 19.5V5.25L18.7495 5.25Z" fill="white"/>
<path fill-rule="evenodd" clip-rule="evenodd" d="M3.74976 4.5L20.2498 4.5C20.664 4.5 20.9998 4.83579 20.9998 5.25C20.9998 5.66421 20.664 6 20.2498 6L3.74976 6C3.33554 6 2.99976 5.66422 2.99976 5.25C2.99976 4.83579 3.33554 4.5 3.74976 4.5Z" fill="white"/>
<path fill-rule="evenodd" clip-rule="evenodd" d="M9.75 9C10.1642 9 10.5 9.33579 10.5 9.75V15.75C10.5 16.1642 10.1642 16.5 9.75 16.5C9.33579 16.5 9 16.1642 9 15.75V9.75C9 9.33579 9.33579 9 9.75 9Z" fill="white"/>
<path fill-rule="evenodd" clip-rule="evenodd" d="M14.25 9C14.6642 9 15 9.33579 15 9.75V15.75C15 16.1642 14.6642 16.5 14.25 16.5C13.8358 16.5 13.5 16.1642 13.5 15.75V9.75C13.5 9.33579 13.8358 9 14.25 9Z" fill="white"/>
<path fill-rule="evenodd" clip-rule="evenodd" d="M7.5 2.25C7.5 1.83579 7.83579 1.5 8.25 1.5H15.75C16.1642 1.5 16.5 1.83579 16.5 2.25C16.5 2.66421 16.1642 3 15.75 3H8.25C7.83579 3 7.5 2.66421 7.5 2.25Z" fill="white"/>
<path fill-rule="evenodd" clip-rule="evenodd" d="M5.24976 4.5C5.66397 4.5 5.99976 4.83579 5.99976 5.25V19.5H17.9998V5.25C17.9998 4.83579 18.3355 4.5 18.7498 4.5C19.164 4.5 19.4998 4.83579 19.4998 5.25V19.5C19.4998 19.8978 19.3417 20.2794 19.0604 20.5607C18.7791 20.842 18.3976 21 17.9998 21H5.99976C5.60193 21 5.2204 20.842 4.9391 20.5607C4.65779 20.2794 4.49976 19.8978 4.49976 19.5V5.25C4.49976 4.83579 4.83554 4.5 5.24976 4.5Z" fill="white"/>
</svg>
