<svg width="24" height="24" viewBox="0 0 24 24" fill="none" xmlns="http://www.w3.org/2000/svg">
<path fill-rule="evenodd" clip-rule="evenodd" d="M11.4697 3.21698C11.7626 2.92409 12.2374 2.92409 12.5303 3.21698L16.4678 7.15448C16.7607 7.44738 16.7607 7.92225 16.4678 8.21514C16.1749 8.50804 15.7001 8.50804 15.4072 8.21514L12 4.80797L8.59283 8.21514C8.29994 8.50804 7.82506 8.50804 7.53217 8.21514C7.23928 7.92225 7.23928 7.44738 7.53217 7.15448L11.4697 3.21698Z" fill="white"/>
<path fill-rule="evenodd" clip-rule="evenodd" d="M12 3C12.4142 3 12.75 3.33579 12.75 3.75V14.25C12.75 14.6642 12.4142 15 12 15C11.5858 15 11.25 14.6642 11.25 14.25V3.75C11.25 3.33579 11.5858 3 12 3Z" fill="white"/>
<path fill-rule="evenodd" clip-rule="evenodd" d="M3 12C3.41421 12 3.75 12.3358 3.75 12.75V19.5H20.25V12.75C20.25 12.3358 20.5858 12 21 12C21.4142 12 21.75 12.3358 21.75 12.75V19.5C21.75 19.8978 21.592 20.2794 21.3107 20.5607C21.0294 20.842 20.6478 21 20.25 21H3.75C3.35218 21 2.97065 20.842 2.68934 20.5607C2.40804 20.2794 2.25 19.8978 2.25 19.5V12.75C2.25 12.3358 2.58579 12 3 12Z" fill="white"/>
</svg>
